<svg width="18" height="18" viewBox="0 0 18 18" fill="none" xmlns="http://www.w3.org/2000/svg">
<path d="M2.7 18C2.205 18 1.78125 17.8237 1.42875 17.4712C1.07625 17.1188 0.9 16.695 0.9 16.2V6.0525C0.63 5.8875 0.4125 5.67375 0.2475 5.41125C0.0825 5.14875 0 4.845 0 4.5V1.8C0 1.305 0.17625 0.88125 0.52875 0.52875C0.88125 0.17625 1.305 0 1.8 0H16.2C16.695 0 17.1188 0.17625 17.4712 0.52875C17.8237 0.88125 18 1.305 18 1.8V4.5C18 4.845 17.9175 5.14875 17.7525 5.41125C17.5875 5.67375 17.37 5.8875 17.1 6.0525V16.2C17.1 16.695 16.9237 17.1188 16.5712 17.4712C16.2188 17.8237 15.795 18 15.3 18H2.7ZM1.8 4.5H16.2V1.8H1.8V4.5ZM6.3 10.8H11.7V9H6.3V10.8Z" fill="#00685F"/>
</svg>
